<svg version="1.1" viewBox="0 0 1560 804" xmlns="http://www.w3.org/2000/svg">
<path d="m20 419.69 1 0.71714 1 0.69367 1 0.66931 1 0.6441 1 0.61807 1 0.59125 1 0.56368 1 0.53538 1 0.50641 1 0.47678 1 0.44655 1 0.41576 1 0.38443 1 0.35261 1 0.32034 1 0.28766 1 0.25461 1 0.22124 1 0.18759 1 0.1537 1 0.11961 1 0.085371 1 0.051022 1 0.016608 1-0.017827 1-0.052239 1-0.086585 1-0.12082 1-0.1549 1-0.18879 1-0.22243 1-0.25579 1-0.28882 1-0.32149 1-0.35374 1-0.38554 1-0.41686 1-0.44764 1-0.47784 1-0.50744 1-0.5364 1-0.56467 1-0.59221 1-0.61901 1-0.64501 1-0.67019 1-0.69452 1-0.71796 1-0.74048 1-0.76206 1-0.78267 1-0.80228 1-0.82087 1-0.83841 1-0.85488 1-0.87026 1-0.88453 1-0.89767 1-0.90967 1-0.92051 1-0.93017 1-0.93865 1-0.94593 1-0.952 1-0.95686 1-0.9605 1-0.96292 1-0.9641 1-0.96406 1-0.96279 1-0.96028 1-0.95656 1-0.95161 1-0.94545 1-0.93809 1-0.92953 1-0.91978 1-0.90886 1-0.89678 1-0.88356 1-0.86921 1-0.85375 1-0.8372 1-0.81959 1-0.80093 1-0.78124 1-0.76057 1-0.73892 1-0.71633 1-0.69282 1-0.66844 1-0.6432 1-0.61713 1-0.59029 1-0.56269 1-0.53437 1-0.50537 1-0.47572 1-0.44547 1-0.41465 1-0.38331 1-0.35147 1-0.31919 1-0.28649 1-0.25344 1-0.22005 1-0.18639 1-0.15249 1-0.1184 1-0.084156 1-0.049804 1-0.015389 1 0.019046 1 0.053457 1 0.087799 1 0.12203 1 0.15611 1 0.18998 1 0.22361 1 0.25696 1 0.28998 1 0.32263 1 0.35487 1 0.38666 1 0.41795 1 0.44871 1 0.4789 1 0.50848 1 0.53741 1 0.56565 1 0.59318 1 0.61994 1 0.64592 1 0.67107 1 0.69536 1 0.71877 1 0.74126 1 0.76281 1 0.78338 1 0.80296 1 0.82151 1 0.83901 1 0.85544 1 0.87078 1 0.88502 1 0.89812 1 0.91007 1 0.92087 1 0.93049 1 0.93893 1 0.94616 1 0.9522 1 0.95701 1 0.96061 1 0.96298 1 0.96412 1 0.96403 1 0.96272 1 0.96017 1 0.9564 1 0.95142 1 0.94521 1 0.93781 1 0.9292 1 0.91941 1 0.90845 1 0.89633 1 0.88307 1 0.86868 1 0.85318 1 0.8366 1 0.81894 1 0.80025 1 0.78053 1 0.75982 1 0.73813 1 0.71551 1 0.69197 1 0.66756 1 0.64229 1 0.6162 1 0.58932 1 0.5617 1 0.53335 1 0.50433 1 0.47466 1 0.44439 1 0.41355 1 0.38219 1 0.35033 1 0.31803 1 0.28533 1 0.25226 1 0.21887 1 0.1852 1 0.15129 1 0.11719 1 0.082942 1 0.048587 1 0.01417 1-0.020265 1-0.054674 1-0.089014 1-0.12324 1-0.15731 1-0.19118 1-0.2248 1-0.25814 1-0.29115 1-0.32378 1-0.35601 1-0.38778 1-0.41905 1-0.44979 1-0.47996 1-0.50952 1-0.53842 1-0.56664 1-0.59414 1-0.62087 1-0.64682 1-0.67194 1-0.69621 1-0.71958 1-0.74204 1-0.76355 1-0.78409 1-0.80363 1-0.82215 1-0.83961 1-0.856 1-0.87131 1-0.8855 1-0.89856 1-0.91048 1-0.92123 1-0.93081 1-0.9392 1-0.9464 1-0.95239 1-0.95716 1-0.96071 1-0.96304 1-0.96414 1-0.96401 1-0.96265 1-0.96006 1-0.95625 1-0.95122 1-0.94497 1-0.93752 1-0.92888 1-0.91904 1-0.90804 1-0.89588 1-0.88258 1-0.86815 1-0.85261 1-0.83599 1-0.8183 1-0.79957 1-0.77981 1-0.75907 1-0.73735 1-0.71469 1-0.69113 1-0.66668 1-0.64138 1-0.61526 1-0.58836 1-0.5607 1-0.53234 1-0.50329 1-0.4736 1-0.44331 1-0.41245 1-0.38107 1-0.3492 1-0.31688 1-0.28416 1-0.25108 1-0.21768 1-0.184 1-0.15009 1-0.11598 1-0.081727 1-0.047369 1-0.012951 1 0.021484 1 0.055891 1 0.090228 1 0.12445 1 0.15851 1 0.19237 1 0.22599 1 0.25931 1 0.29231 1 0.32493 1 0.35714 1 0.38889 1 0.42015 1 0.45087 1 0.48102 1 0.51055 1 0.53943 1 0.56763 1 0.5951 1 0.62181 1 0.64772 1 0.67282 1 0.69705 1 0.72039 1 0.74282 1 0.7643 1 0.7848 1 0.8043 1 0.82278 1 0.84021 1 0.85657 1 0.87183 1 0.88598 1 0.899 1 0.91088 1 0.92159 1 0.93113 1 0.93948 1 0.94663 1 0.95258 1 0.95731 1 0.96082 1 0.9631 1 0.96416 1 0.96398 1 0.96258 1 0.95995 1 0.95609 1 0.95102 1 0.94473 1 0.93724 1 0.92855 1 0.91868 1 0.90763 1 0.89543 1 0.88209 1 0.86762 1 0.85204 1 0.83538 1 0.81765 1 0.79888 1 0.7791 1 0.75831 1 0.73656 1 0.71387 1 0.69027 1 0.66579 1 0.64047 1 0.61432 1 0.58739 1 0.55971 1 0.53132 1 0.50225 1 0.47254 1 0.44223 1 0.41135 1 0.37995 1 0.34806 1 0.31573 1 0.283 1 0.2499 1 0.21649 1 0.1828 1 0.14888 1 0.11477 1 0.080512 1 0.046151 1 0.011731 1-0.022703 1-0.057109 1-0.091441 1-0.12566 1-0.15971 1-0.19357 1-0.22717 1-0.26049 1-0.29347 1-0.32608 1-0.35827 1-0.39001 1-0.42125 1-0.45195 1-0.48207 1-0.51158 1-0.54044 1-0.56861 1-0.59605 1-0.62274 1-0.64863 1-0.67369 1-0.69789 1-0.7212 1-0.7436 1-0.76504 1-0.78551 1-0.80498 1-0.82342 1-0.84081 1-0.85712 1-0.87235 1-0.88646 1-0.89944 1-0.91128 1-0.92195 1-0.93144 1-0.93975 1-0.94686 1-0.95277 1-0.95745 1-0.96092 1-0.96316 1-0.96417 1-0.96395 1-0.96251 1-0.95983 1-0.95593 1-0.95081 1-0.94448 1-0.93695 1-0.92822 1-0.9183 1-0.90722 1-0.89498 1-0.88159 1-0.86709 1-0.85147 1-0.83477 1-0.81701 1-0.7982 1-0.77838 1-0.75756 1-0.73578 1-0.71305 1-0.68942 1-0.66491 1-0.63955 1-0.61338 1-0.58642 1-0.55872 1-0.5303 1-0.50121 1-0.47148 1-0.44114 1-0.41025 1-0.37883 1-0.34692 1-0.31458 1-0.28183 1-0.24873 1-0.2153 1-0.18161 1-0.14768 1-0.11356 1-0.079297 1-0.044933 1-0.010512 1 0.023922 1 0.058326 1 0.092655 1 0.12687 1 0.16092 1 0.19476 1 0.22836 1 0.26166 1 0.29463 1 0.32723 1 0.3594 1 0.39112 1 0.42234 1 0.45303 1 0.48313 1 0.51262 1 0.54145 1 0.5696 1 0.59701 1 0.62367 1 0.64953 1 0.67456 1 0.69873 1 0.72201 1 0.74437 1 0.76578 1 0.78622 1 0.80565 1 0.82405 1 0.8414 1 0.85768 1 0.87287 1 0.88694 1 0.89988 1 0.91167 1 0.92231 1 0.93176 1 0.94003 1 0.94709 1 0.95295 1 0.9576 1 0.96102 1 0.96322 1 0.96418 1 0.96392 1 0.96243 1 0.95971 1 0.95577 1 0.95061 1 0.94424 1 0.93666 1 0.92789 1 0.91793 1 0.90681 1 0.89452 1 0.8811 1 0.86655 1 0.8509 1 0.83416 1 0.81636 1 0.79752 1 0.77766 1 0.7568 1 0.73499 1 0.71223 1 0.68857 1 0.66403 1 0.63864 1 0.61244 1 0.58546 1 0.55772 1 0.52928 1 0.50017 1 0.47041 1 0.44006 1 0.40914 1 0.37771 1 0.34579 1 0.31343 1 0.28067 1 0.24755 1 0.21412 1 0.18041 1 0.14647 1 0.11235 1 0.078082 1 0.043715 1 0.0092931 1-0.025141 1-0.059543 1-0.093869 1-0.12807 1-0.16212 1-0.19595 1-0.22954 1-0.26283 1-0.29579 1-0.32837 1-0.36054 1-0.39224 1-0.42344 1-0.4541 1-0.48418 1-0.51365 1-0.54246 1-0.57058 1-0.59797 1-0.6246 1-0.65043 1-0.67543 1-0.69957 1-0.72282 1-0.74515 1-0.76652 1-0.78692 1-0.80632 1-0.82468 1-0.842 1-0.85824 1-0.87339 1-0.88742 1-0.90032 1-0.91207 1-0.92266 1-0.93207 1-0.9403 1-0.94732 1-0.95314 1-0.95774 1-0.96112 1-0.96327 1-0.9642 1-0.96389 1-0.96236 1-0.95959 1-0.95561 1-0.95041 1-0.94399 1-0.93637 1-0.92755 1-0.91756 1-0.90639 1-0.89407 1-0.8806 1-0.86602 1-0.85032 1-0.83355 1-0.81571 1-0.79683 1-0.77693 1-0.75605 1-0.7342 1-0.71141 1-0.68772 1-0.66314 1-0.63773 1-0.6115 1-0.58449 1-0.55673 1-0.52826 1-0.49912 1-0.46935 1-0.43897 1-0.40804 1-0.37658 1-0.34465 1-0.31227 1-0.2795 1-0.24637 1-0.21293 1-0.17921 1-0.14527 1-0.11114 1-0.076866 1-0.042497 1-0.0080739 1 0.02636 1 0.06076 1 0.095082 1 0.12928 1 0.16332 1 0.19715 1 0.23072 1 0.26401 1 0.29695 1 0.32952 1 0.36167 1 0.39335 1 0.42453 1 0.45518 1 0.48524 1 0.51468 1 0.54347 1 0.57156 1 0.59893 1 0.62553 1 0.65133 1 0.6763 1 0.70041 1 0.72363 1 0.74592 1 0.76726 1 0.78763 1 0.80698 1 0.82531 1 0.84259 1 0.85879 1 0.8739 1 0.88789 1 0.90075 1 0.91247 1 0.92301 1 0.93238 1 0.94057 1 0.94755 1 0.95332 1 0.95788 1 0.96121 1 0.96332 1 0.96421 1 0.96386 1 0.96228 1 0.95947 1 0.95545 1 0.9502 1 0.94374 1 0.93608 1 0.92722 1 0.91718 1 0.90597 1 0.89361 1 0.88011 1 0.86548 1 0.84975 1 0.83293 1 0.81506 1 0.79614 1 0.77621 1 0.75529 1 0.73341 1 0.71059 1 0.68686 1 0.66226 1 0.63681 1 0.61055 1 0.58352 1 0.55573 1 0.52724 1 0.49808 1 0.46828 1 0.43789 1 0.40693 1 0.37546 1 0.34351 1 0.31112 1 0.27833 1 0.24519 1 0.21174 1 0.17801 1 0.14406 1 0.10993 1 0.075651 1 0.041279 1 0.0068547 1-0.027578 1-0.061976 1-0.096295 1-0.13049 1-0.16452 1-0.19834 1-0.23191 1-0.26518 1-0.29811 1-0.33066 1-0.3628 1-0.39446 1-0.42563 1-0.45625 1-0.48629 1-0.51571 1-0.54447 1-0.57254 1-0.59988 1-0.62645 1-0.65223 1-0.67717 1-0.70125 1-0.72443 1-0.74669 1-0.768 1-0.78833 1-0.80765 1-0.82594 1-0.84318 1-0.85935 1-0.87442 1-0.88837 1-0.90119 1-0.91286 1-0.92337 1-0.93269 1-0.94083 1-0.94777 1-0.9535 1-0.95802 1-0.96131 1-0.96338 1-0.96421 1-0.96382 1-0.9622 1-0.95935 1-0.95528 1-0.94999 1-0.94349 1-0.93578 1-0.92689 1-0.91681 1-0.90556 1-0.89315 1-0.87961 1-0.86494 1-0.84917 1-0.83232 1-0.81441 1-0.79545 1-0.77549 1-0.75453 1-0.73261 1-0.70976 1-0.686 1-0.66137 1-0.6359 1-0.60961 1-0.58254 1-0.55474 1-0.52622 1-0.49704 1-0.46722 1-0.4368 1-0.40583 1-0.37434 1-0.34237 1-0.30996 1-0.27716 1-0.24401 1-0.21055 1-0.17681 1-0.14286 1-0.10871 1-0.074435 1-0.040061 1-0.0056354 1 0.028797 1 0.063193 1 0.097508 1 0.1317 1 0.16572 1 0.19953 1 0.23309 1 0.26635 1 0.29927 1 0.33181 1 0.36392 1 0.39558 1 0.42672 1 0.45733 1 0.48734 1 0.51674 1 0.54548 1 0.57352 1 0.60083 1 0.62738 1 0.65312 1 0.67804 1 0.70208 1 0.72524 1 0.74746 1 0.76874 1 0.78903 1 0.80832 1 0.82657 1 0.84377 1 0.8599 1 0.87493 1 0.88884 1 0.90162 1 0.91325 1 0.92372 1 0.933 1 0.9411 1 0.948 1 0.95368 1 0.95815 1 0.9614 1 0.96343 1 0.96422 1 0.96379 1 0.96212 1 0.95923 1 0.95511 1 0.94978 1 0.94324 1 0.93549 1 0.92655 1 0.91643 1 0.90514 1 0.89269 1 0.87911 1 0.8644 1 0.84859 1 0.8317 1 0.81375 1 0.79476 1 0.77476 1 0.75377 1 0.73182 1 0.70894 1 0.68515 1 0.66048 1 0.63498 1 0.60866 1 0.58157 1 0.55374 1 0.5252 1 0.49599 1 0.46615 1 0.43571 1 0.40472 1 0.37321 1 0.34123 1 0.30881 1 0.276 1 0.24283 1 0.20936 1 0.17562 1 0.14165 1 0.1075 1 0.07322 1 0.038843 1 0.0044162 1-0.030016 1-0.06441 1-0.098721 1-0.13291 1-0.16692 1-0.20073 1-0.23427 1-0.26752 1-0.30043 1-0.33295 1-0.36505 1-0.39669 1-0.42782 1-0.4584 1-0.4884 1-0.51777 1-0.54649 1-0.5745 1-0.60179 1-0.62831 1-0.65402 1-0.6789 1-0.70292 1-0.72604 1-0.74823 1-0.76947 1-0.78973 1-0.80898 1-0.8272 1-0.84436 1-0.86045 1-0.87544 1-0.88931 1-0.90205 1-0.91364 1-0.92406 1-0.93331 1-0.94136 1-0.94822 1-0.95386 1-0.95829 1-0.9615 1-0.96348 1-0.96423 1-0.96375 1-0.96204 1-0.9591 1-0.95495 1-0.94957 1-0.94298 1-0.93519 1-0.92621 1-0.91605 1-0.90471 1-0.89223 1-0.8786 1-0.86386 1-0.84801 1-0.83109 1-0.8131 1-0.79407 1-0.77404 1-0.75301 1-0.73103 1-0.70811 1-0.68429 1-0.6596 1-0.63406 1-0.60772 1-0.5806 1-0.55274 1-0.52418 1-0.49495 1-0.46508 1-0.43463 1-0.40361 1-0.37209 1-0.34009 1-0.30765 1-0.27483 1-0.24165 1-0.20817 1-0.17442 1-0.14044 1-0.10629 1-0.072004 1-0.037624 1-0.0031969 1 0.031235 1 0.065626 1 0.099934 1 0.13411 1 0.16812 1 0.20192 1 0.23546 1 0.26869 1 0.30159 1 0.3341 1 0.36618 1 0.3978 1 0.42891 1 0.45947 1 0.48945 1 0.5188 1 0.54749 1 0.57548 1 0.60274 1 0.62923 1 0.65492 1 0.67977 1 0.70375 1 0.72684 1 0.749 1 0.77021 1 0.79043 1 0.80964 1 0.82783 1 0.84495 1 0.861 1 0.87595 1 0.88978 1 0.90248 1 0.91403 1 0.92441 1 0.93362 1 0.94163 1 0.94844 1 0.95404 1 0.95843 1 0.96159 1 0.96352 1 0.96423 1 0.96371 1 0.96196 1 0.95898 1 0.95478 1 0.94936 1 0.94273 1 0.9349 1 0.92587 1 0.91567 1 0.90429 1 0.89177 1 0.8781 1 0.86332 1 0.84743 1 0.83047 1 0.81244 1 0.79338 1 0.77331 1 0.75225 1 0.73023 1 0.70728 1 0.68343 1 0.65871 1 0.63314 1 0.60677 1 0.57963 1 0.55174 1 0.52315 1 0.4939 1 0.46401 1 0.43354 1 0.40251 1 0.37096 1 0.33895 1 0.3065 1 0.27366 1 0.24047 1 0.20698 1 0.17322 1 0.13924 1 0.10508 1 0.070788 1 0.036406 1 0.0019777 1-0.032453 1-0.066843 1-0.10115 1-0.13532 1-0.16932 1-0.20311 1-0.23664 1-0.26986 1-0.30275 1-0.33524 1-0.36731 1-0.39891 1-0.43 1-0.46054 1-0.4905 1-0.51983 1-0.54849 1-0.57646 1-0.60369 1-0.63015 1-0.65581 1-0.68063 1-0.70459 1-0.72764 1-0.74977 1-0.77094 1-0.79113 1-0.81031 1-0.82845 1-0.84554 1-0.86155 1-0.87646 1-0.89025 1-0.90291 1-0.91442 1-0.92476 1-0.93392 1-0.94189 1-0.94866 1-0.95422 1-0.95856 1-0.96168 1-0.96357 1-0.96423 1-0.96367 1-0.96187 1-0.95885 1-0.95461 1-0.94914 1-0.94247 1-0.9346 1-0.92553 1-0.91528 1-0.90387 1-0.8913 1-0.8776 1-0.86277 1-0.84685 1-0.82985 1-0.81178 1-0.79269 1-0.77258 1-0.75149 1-0.72943 1-0.70645 1-0.68257 1-0.65781 1-0.63222 1-0.60582 1-0.57865 1-0.55074 1-0.52213 1-0.49285 1-0.46294 1-0.43245 1-0.4014 1-0.36984 1-0.33781 1-0.30534 1-0.27249 1-0.23929 1-0.20579 1-0.17202 1-0.13803 1-0.10387 1-0.069572 1-0.035188 1-7.5841e-4 1 0.033672 1 0.068059 1 0.10236 1 0.13653 1 0.17052 1 0.2043 1 0.23782 1 0.27103 1 0.3039 1 0.33638 1 0.36844 1 0.40002 1 0.43109 1 0.46161 1 0.49155 1 0.52085 1 0.5495 1 0.57744 1 0.60464 1 0.63108 1 0.6567 1 0.6815 1 0.70542 1 0.72844 1 0.75053 1 0.77167 1 0.79182 1 0.81097 1 0.82907 1 0.84612 1 0.8621 1 0.87697 1 0.89072 1 0.90334 1 0.9148 1 0.9251 1 0.93422 1 0.94215 1 0.94888 1 0.95439 1 0.95869 1 0.96177 1 0.96361 1 0.96423 1 0.96362 1 0.96179 1 0.95872 1 0.95443 1 0.94893 1 0.94221 1 0.9343 1 0.92519 1 0.9149 1 0.90344 1 0.89084 1 0.87709 1 0.86223 1 0.84627 1 0.82923 1 0.81113 1 0.79199 1 0.77185 1 0.75072 1 0.72864 1 0.70562 1 0.68171 1 0.65692 1 0.6313 1 0.60487 1 0.57767 1 0.54974 1 0.5211 1 0.4918 1 0.46187 1 0.43136 1 0.40029 1 0.36871 1 0.33666 1 0.30419 1 0.27132 1 0.23811 1 0.20459 1 0.17082 1 0.13682 1 0.10266 1 0.068356 1 0.033969 1-4.6086e-4 1-0.03489 1-0.069275 1-0.10357 1-0.13774 1-0.17172 1-0.20549 1-0.239 1-0.2722 1-0.30506 1-0.33753 1-0.36956 1-0.40113 1-0.43218 1-0.46268 1-0.49259 1-0.52188 1-0.5505 1-0.57841 1-0.60559 1-0.632 1-0.6576 1-0.68236 1-0.70625 1-0.72924 1-0.7513 1-0.7724 1-0.79252 1-0.81162 1-0.8297 1-0.84671 1-0.86264 1-0.87747 1-0.89119 1-0.90376 1-0.91519 1-0.92545 1-0.93452 1-0.94241 1-0.94909 1-0.95456 1-0.95882 1-0.96185 1-0.96366 1-0.96423 1-0.96358 1-0.9617 1-0.95859 1-0.95426 1-0.94871 1-0.94195 1-0.93399 1-0.92484 1-0.91451 1-0.90302 1-0.89037 1-0.87658 1-0.86168 1-0.84568 1-0.8286 1-0.81047 1-0.7913 1-0.77112 1-0.74996 1-0.72784 1-0.70479 1-0.68084 1-0.65603 1-0.63038 1-0.60392 1-0.5767 1-0.54874 1-0.52008 1-0.49075 1-0.4608 1-0.43027 1-0.39918 1-0.36758 1-0.33552 1-0.30303 1-0.27015 1-0.23693 1-0.2034 1-0.16962 1-0.13562 1-0.10144 1-0.067139 1-0.032751 1 0.0016801 1 0.036109 1 0.070491 1 0.10478 1 0.13894 1 0.17292 1 0.20669 1 0.24018 1 0.27337 1 0.30622 1 0.33867 1 0.37069 1 0.40224 1 0.43327 1 0.46375 1 0.49364 1 0.5229 1 0.5515 1 0.57939 1 0.60654 1 0.63292 1 0.65849 1 0.68322 1 0.70708 1 0.73004 1 0.75206 1 0.77313 1 0.79321 1 0.81228 1 0.83032 1 0.84729 1 0.86319 1 0.87798 1 0.89165 1 0.90419 1 0.91557 1 0.92579 1 0.93482 1 0.94267 1 0.94931 1 0.95474 1 0.95895 1 0.96194 1 0.9637 1 0.96423 1 0.96354 1 0.96161 1 0.95846 1 0.95408 1 0.94849 1 0.94169 1 0.93369 1 0.9245 1 0.91413 1 0.90259 1 0.8899 1 0.87608 1 0.86113 1 0.8451 1 0.82798 1 0.80981 1 0.7906 1 0.77039 1 0.74919 1 0.72704 1 0.70396 1 0.67998 1 0.65514 1 0.62946 1 0.60297 1 0.57572 1 0.54773 1 0.51905 1 0.4897 1 0.45973 1 0.42917 1 0.39807 1 0.36646 1 0.33438 1 0.30187 1 0.26898 1 0.23575 1 0.20221 1 0.16842 1 0.13441 1 0.10023 1 0.065923 1 0.031532 1-0.0028994 1-0.037327 1-0.071707 1-0.106 1-0.14015 1-0.17412 1-0.20788 1-0.24136 1-0.27454 1-0.30737 1-0.33981 1-0.37181 1-0.40334 1-0.43436 1-0.46482 1-0.49469 1-0.52393 1-0.5525 1-0.58036 1-0.60749 1-0.63384 1-0.65938 1-0.68408 1-0.70791 1-0.73083 1-0.75283 1-0.77386 1-0.7939 1-0.81294 1-0.83094 1-0.84787 1-0.86373 1-0.87848 1-0.89212 1-0.90461 1-0.91595 1-0.92613 1-0.93512 1-0.94292 1-0.94952 1-0.95491 1-0.95907 1-0.96202 1-0.96374 1-0.96423 1-0.96349 1-0.96152 1-0.95832 1-0.95391 1-0.94827 1-0.94143 1-0.93338 1-0.92415 1-0.91374 1-0.90216 1-0.88943 1-0.87557 1-0.86059 1-0.84451 1-0.82735 1-0.80914 1-0.7899 1-0.76965 1-0.74842 1-0.72623 1-0.70312 1-0.67911 1-0.65424 1-0.62853 1-0.60202 1-0.57474 1-0.54673 1-0.51802 1-0.48865 1-0.45866 1-0.42808 1-0.39696 1-0.36533 1-0.33323 1-0.30071 1-0.26781 1-0.23456 1-0.20102 1-0.16722 1-0.1332 1-0.099017 1-0.064707 1-0.030313" fill="none" stroke="#02063B" stroke-linecap="round" stroke-linejoin="round" stroke-miterlimit="10" stroke-width="16" paint-order="fill stroke markers"/>
</svg>
